<svg id="Capa_1" data-name="Capa 1" xmlns="http://www.w3.org/2000/svg" xmlns:xlink="http://www.w3.org/1999/xlink" viewBox="0 0 639.62 639.62"><defs><style>.cls-1{fill:none;}.cls-2{clip-path:url(#clip-path);}.cls-3{fill:#fff;}</style><clipPath id="clip-path" transform="translate(-260.85 -124.41)"><rect class="cls-1" x="154.41" y="-154.41" width="841.89" height="1150.7"/></clipPath></defs><g class="cls-2"><path class="cls-3" d="M754.71,608c-90,96.41-241.12,101.6-337.53,11.59s-101.6-241.12-11.6-337.53,241.13-101.6,337.54-11.6S844.72,511.6,754.71,608" transform="translate(-260.85 -124.41)"/><path d="M748.19,601.92c-86.65,92.8-232.12,97.8-324.92,11.16S325.47,381,412.11,288.16,644.22,190.36,737,277s97.8,232.11,11.16,324.92" transform="translate(-260.85 -124.41)"/><path class="cls-3" d="M742.62,596.72c-83.77,89.73-224.42,94.56-314.16,10.79S333.9,383.09,417.67,293.35s224.43-94.56,314.16-10.79S826.39,507,742.62,596.72" transform="translate(-260.85 -124.41)"/><path d="M699,556a162.55,162.55,0,1,1-7.89-229.75A162.56,162.56,0,0,1,699,556" transform="translate(-260.85 -124.41)"/><polygon points="136.15 320.74 136.58 317.43 110.04 314.01 109.61 317.32 99.66 316.04 101.37 302.77 119.02 296.63 103.51 286.19 105.22 272.92 115.17 274.21 114.74 277.53 141.28 280.95 141.71 277.63 151.65 278.91 149.51 295.5 139.57 294.21 140 290.89 123.41 288.75 138.93 299.19 121.28 305.34 137.86 307.48 138.29 304.17 148.23 305.45 146.09 322.02 136.15 320.74"/><polygon points="146.41 262.37 147.81 259.34 123.55 248.06 122.15 251.09 113.05 246.86 127.14 216.54 139.28 222.19 135.05 231.28 132.02 229.86 127.78 238.96 133.85 241.78 139.49 229.66 148.59 233.89 142.95 246.01 152.05 250.25 156.28 241.15 153.24 239.73 157.47 230.64 169.59 236.28 155.5 266.6 146.41 262.37"/><polygon points="168.43 218.19 170.66 215.71 150.71 197.86 148.49 200.35 141.01 193.65 149.93 183.68 178.79 191.56 166.33 180.41 164.1 182.9 156.62 176.2 167.77 163.75 175.25 170.44 173.02 172.93 200.44 197.46 193.75 204.94 164.89 197.07 177.35 208.23 179.58 205.74 187.05 212.42 175.91 224.88 168.43 218.19"/><polygon points="215.99 172.87 218.87 171.17 205.24 148.14 202.36 149.84 204.06 152.72 195.44 157.83 188.62 146.31 220.28 127.58 227.09 139.09 218.46 144.21 216.75 141.32 213.88 143.02 227.51 166.05 230.38 164.35 235.49 172.98 221.09 181.5 215.99 172.87"/><path d="M514.38,277l3.24-.77.34-27.57-3.25.77-2.32-9.76,20.33-4.82,17.44,33.67,3.24-.77,2.31,9.75-16.25,3.86-2.31-9.76,2.43-.57L538,268l-9.76,2.32,0,3.45,2.43-.58,2.31,9.75-16.25,3.85Zm14.11-27.39L528.37,260l4.87-1.15Z" transform="translate(-260.85 -124.41)"/><polygon points="308.43 141.96 311.76 142.15 313.29 115.43 309.96 115.24 310.53 105.22 327.22 106.17 326.64 116.19 323.31 116 321.78 142.72 331.8 143.29 331.99 139.95 342 140.53 341.24 153.88 307.85 151.97 308.43 141.96"/><polygon points="383.63 158.24 399.27 128.7 408.31 125.91 426.04 135.3 428.81 144.34 424.12 153.2 415.26 148.51 416.83 145.56 415.43 141.03 409.52 137.91 405 139.3 395.61 157.02 397 161.55 402.91 164.68 407.44 163.29 409 160.34 417.86 165.03 413.17 173.88 404.13 176.66 386.4 167.28 383.63 158.24"/><path d="M689,303.93l2.39,2.33,23.48-14.47-2.39-2.33,7-7.18,15,14.6-19.13,32.76,2.39,2.33-7,7.17-12-11.68,7-7.17,1.79,1.75,1.74-3-7.18-7-2.93,1.81,1.79,1.75-7,7.17L682,311.1Zm30.71-2.73-8.79,5.42,3.58,3.5Z" transform="translate(-260.85 -124.41)"/><polygon points="463.62 221.82 492.83 205.59 501.93 208.18 511.67 225.71 509.07 234.81 500.31 239.68 495.44 230.91 498.36 229.29 499.66 224.74 496.41 218.9 491.86 217.6 474.33 227.34 473.03 231.89 476.27 237.73 480.83 239.03 483.74 237.41 480.49 231.56 489.26 226.69 497.38 241.3 479.85 251.04 470.76 248.44 461.02 230.91 463.62 221.82"/><polygon points="488.95 264.03 489.73 267.28 515.75 261.03 514.97 257.78 524.73 255.44 532.54 287.95 519.52 291.08 517.18 281.33 520.44 280.55 518.09 270.79 511.59 272.35 514.72 285.35 504.96 287.7 501.83 274.69 492.07 277.04 494.42 286.8 497.68 286.02 500.02 295.76 487.01 298.89 479.2 266.38 488.95 264.03"/><path class="cls-3" d="M531,423.38l.23-.5.26-.54c.17-.36.36-.72.55-1.08.37-.72.76-1.43,1.17-2.14q1.22-2.13,2.57-4.19c.91-1.37,1.86-2.7,2.86-4s2-2.58,3.11-3.81a61.28,61.28,0,0,1,7-6.85c.62-.53,1.27-1,1.91-1.52l1-.72.49-.36.51-.34,1-.69,1-.64.52-.32.53-.3,1.06-.61,1-.57,0-1c.21-5.32.39-10.64.58-16s.35-10.65.5-16,.3-10.65.43-16l.1-4,.07-4c.06-2.66.11-5.33.14-8-.28,2.65-.53,5.3-.79,8l-.39,4-.37,4q-.75,8-1.45,15.92c-.47,5.3-.91,10.61-1.36,15.92q-.62,7.39-1.21,14.81l-.23.12-.58.3-.58.32-1.15.66-1.12.69-.56.35-.55.36-1.1.74c-.71.52-1.44,1-2.13,1.56a65.21,65.21,0,0,0-7.77,7.08,73.66,73.66,0,0,0-6.61,8.14q-1.51,2.14-2.88,4.39c-.46.75-.9,1.51-1.33,2.28-.21.36-.41.73-.61,1.1L516.4,421.5l-11.76,1.79q-11.75,1.8-23.49,3.64l-11.74,1.85-11.74,1.89-11.73,1.89-7.81,1.28c.55-5.74,1.34-11.46,2.43-17.12l.24-1.3c.09-.44.19-.87.28-1.3l.56-2.59c.18-.87.41-1.72.61-2.58l.31-1.29c.1-.43.2-.86.32-1.29.47-1.7.9-3.42,1.42-5.1.25-.85.49-1.7.76-2.54l.82-2.52a150.87,150.87,0,0,1,18.74-37.94q3-4.41,6.31-8.57c2.2-2.78,4.5-5.5,6.89-8.13s4.88-5.17,7.45-7.64,5.23-4.85,8-7.15,5.55-4.51,8.42-6.63,5.83-4.15,8.85-6.09,6.1-3.77,9.25-5.49a104.49,104.49,0,0,1,9.68-4.75c-1.72.54-3.41,1.17-5.08,1.84s-3.34,1.39-5,2.13-3.27,1.53-4.89,2.35c-.81.4-1.61.82-2.41,1.24s-1.6.85-2.39,1.29c-1.59.87-3.15,1.79-4.71,2.71l-2.31,1.43c-.77.49-1.54,1-2.3,1.47q-4.56,3-8.9,6.26T483,331.43c-2.74,2.39-5.41,4.89-8,7.48a147.62,147.62,0,0,0-14.2,16.66c-.27.37-.55.73-.81,1.1l-.79,1.13c-.53.75-1.06,1.49-1.56,2.25l-1.52,2.29-1.47,2.32c-.5.77-1,1.56-1.43,2.35s-1,1.56-1.39,2.36l-1.35,2.4-1.29,2.42c-1.69,3.25-3.29,6.55-4.74,9.92-.75,1.68-1.41,3.39-2.11,5.08-.33.86-.64,1.72-1,2.58l-.48,1.29c-.16.43-.3.86-.46,1.3l-.89,2.6c-.29.87-.55,1.74-.83,2.62-.57,1.74-1,3.51-1.55,5.27-.13.44-.25.89-.36,1.33l-.34,1.33-.34,1.33c-.11.45-.23.89-.32,1.34l-.61,2.68c-.1.45-.21.89-.3,1.34l-.27,1.35a179.14,179.14,0,0,0-3,21.75l-.3,3.9,3.88-.62,11.73-1.88,11.74-1.92,11.73-1.92,11.72-2c7.82-1.29,15.63-2.63,23.44-4l11.72-2,11.71-2,1.41-.24Z" transform="translate(-260.85 -124.41)"/><path class="cls-3" d="M465.55,445.9c-3.43.11-6.87.26-10.3.4l-5.15.24c-1.72.08-3.44.16-5.15.26l-5.15.27-5.15.31q-4.11.24-8.22.53a98,98,0,0,1-.72-11c0-1.1,0-2.2,0-3.3s0-2.2.1-3.3c.09-2.2.24-4.41.44-6.61.38-4.41,1-8.82,1.7-13.21.18-1.1.37-2.2.58-3.3s.41-2.19.63-3.29c.45-2.19.92-4.38,1.46-6.56a99.71,99.71,0,0,0-4.52,12.73c-.61,2.17-1.18,4.36-1.67,6.56s-.94,4.43-1.32,6.66-.69,4.49-.92,6.75c-.13,1.13-.21,2.27-.31,3.4s-.15,2.27-.18,3.42a85.36,85.36,0,0,0,.56,13.73l.24,2,2.11-.1c3.43-.17,6.87-.32,10.3-.52l5.15-.28,5.14-.31c1.72-.1,3.43-.22,5.15-.33l5.14-.35c3.43-.25,6.86-.5,10.29-.79q10.27-.82,20.54-1.88c6.85-.72,13.69-1.5,20.52-2.5-6.9-.22-13.78-.21-20.67-.14s-13.75.24-20.63.47" transform="translate(-260.85 -124.41)"/><path class="cls-3" d="M558.94,492.08l-.5-.23-.54-.26-1.08-.55c-.72-.37-1.43-.76-2.14-1.17q-2.13-1.22-4.19-2.58c-1.36-.9-2.7-1.86-4-2.85s-2.58-2-3.81-3.11a60.37,60.37,0,0,1-6.84-7c-.54-.62-1-1.27-1.53-1.91l-.72-1-.36-.49-.34-.51-.69-1-.64-1-.32-.52-.3-.52-.61-1.06-.56-1-1,0c-5.32-.21-10.64-.39-16-.58s-10.64-.35-16-.5-10.65-.31-16-.43l-4-.1-4-.08-8-.14c2.65.28,5.3.54,8,.8l4,.39,4,.37q8,.75,15.91,1.45c5.3.47,10.61.91,15.92,1.36,4.94.4,9.87.82,14.81,1.21l.12.22.3.59.33.58.65,1.15.69,1.12.35.56.37.55.73,1.1c.52.71,1,1.44,1.56,2.13a65.21,65.21,0,0,0,7.08,7.77,73.66,73.66,0,0,0,8.14,6.61q2.14,1.51,4.39,2.88c.75.46,1.51.9,2.28,1.33q.54.31,1.11.6l1.57,10.46,1.79,11.75c1.2,7.84,2.4,15.67,3.65,23.5l1.84,11.74,1.89,11.73,1.89,11.74,1.28,7.81c-5.74-.55-11.46-1.34-17.12-2.43l-1.3-.24-1.3-.28-2.59-.56c-.87-.18-1.72-.41-2.58-.61l-1.29-.31-1.28-.32c-1.71-.47-3.43-.9-5.11-1.42l-2.54-.76-2.52-.82a151.37,151.37,0,0,1-37.94-18.74q-4.41-3-8.57-6.31c-2.78-2.21-5.5-4.5-8.12-6.89s-5.18-4.88-7.65-7.45-4.85-5.23-7.15-8-4.5-5.54-6.63-8.41-4.15-5.83-6.08-8.85-3.78-6.1-5.5-9.25-3.34-6.37-4.75-9.68c.54,1.72,1.17,3.41,1.84,5.08s1.39,3.34,2.13,5,1.53,3.27,2.35,4.89c.4.81.82,1.61,1.24,2.41s.85,1.6,1.3,2.39c.87,1.58,1.78,3.15,2.71,4.71.47.77.94,1.54,1.42,2.31s1,1.54,1.47,2.29c2,3.05,4.07,6,6.26,8.91s4.49,5.72,6.89,8.46,4.89,5.4,7.48,8a149.56,149.56,0,0,0,16.66,14.2c.37.27.73.55,1.11.81l1.12.79c.75.53,1.49,1.06,2.26,1.56l2.28,1.52,2.32,1.47c.77.5,1.56,1,2.35,1.43s1.56,1,2.37,1.39l2.39,1.35,2.42,1.29c3.26,1.69,6.56,3.29,9.93,4.74,1.67.75,3.38,1.41,5.08,2.11.85.33,1.71.64,2.57,1l1.29.48c.43.16.86.3,1.3.45l2.6.9,2.62.83c1.74.57,3.51,1,5.28,1.55.43.13.88.24,1.32.36l1.33.34,1.34.34c.44.11.88.23,1.33.32l2.68.61,1.34.3,1.35.26a179.44,179.44,0,0,0,21.75,3l3.9.3-.62-3.88-1.88-11.74-1.92-11.73-1.92-11.73-2-11.72c-1.29-7.82-2.63-15.63-4-23.44l-2-11.72-2-11.71-.24-1.41Z" transform="translate(-260.85 -124.41)"/><path class="cls-3" d="M581.46,557.47c.11,3.44.26,6.88.4,10.31l.24,5.15c.08,1.72.16,3.44.26,5.15l.28,5.15.3,5.15q.24,4.11.53,8.21a98,98,0,0,1-11,.73c-1.1,0-2.2,0-3.3,0s-2.2,0-3.3-.1c-2.2-.09-4.41-.24-6.61-.44-4.41-.38-8.82-1-13.21-1.7-1.1-.18-2.2-.38-3.3-.58s-2.19-.41-3.29-.64c-2.19-.44-4.38-.91-6.56-1.45a100.26,100.26,0,0,0,12.73,4.52c2.17.61,4.36,1.18,6.56,1.67s4.43.94,6.66,1.32,4.49.69,6.75.92c1.13.13,2.27.21,3.4.3s2.27.16,3.42.19a85.36,85.36,0,0,0,13.73-.56l2-.24-.1-2.11c-.16-3.43-.32-6.87-.52-10.3l-.28-5.15-.31-5.14c-.1-1.72-.22-3.43-.33-5.15l-.35-5.14c-.25-3.43-.5-6.86-.79-10.29q-.82-10.28-1.88-20.55c-.72-6.84-1.49-13.68-2.5-20.51-.22,6.9-.2,13.78-.14,20.66s.24,13.76.47,20.63" transform="translate(-260.85 -124.41)"/><path class="cls-3" d="M601.89,394.36l.5.23.54.26,1.08.55c.71.38,1.43.76,2.14,1.17q2.13,1.21,4.19,2.58c1.36.91,2.7,1.86,4,2.85s2.59,2,3.82,3.11a60.37,60.37,0,0,1,6.84,7c.54.62,1,1.28,1.53,1.91l.72,1,.36.49.34.51.68,1,.65,1,.32.52.3.53.61,1.06.56,1,1,0c5.32.21,10.65.38,16,.57s10.64.36,16,.51,10.65.3,16,.43l4,.09,4,.08c2.66.05,5.33.11,8,.14-2.65-.28-5.3-.54-8-.8l-4-.39-4-.37q-8-.75-15.91-1.44c-5.31-.48-10.61-.92-15.92-1.37-4.94-.4-9.87-.82-14.81-1.21l-.12-.22-.3-.59-.33-.57-.65-1.15-.69-1.13-.35-.56-.37-.55-.73-1.1c-.52-.71-1-1.44-1.56-2.12a65.31,65.31,0,0,0-7.08-7.78,73.66,73.66,0,0,0-8.14-6.61q-2.14-1.51-4.39-2.88c-.75-.46-1.51-.9-2.28-1.33l-1.11-.6-1.57-10.46L602,368.06q-1.8-11.74-3.65-23.49l-1.84-11.75-1.89-11.73-1.89-11.74-1.28-7.81c5.74.55,11.46,1.34,17.12,2.43l1.3.25,1.3.27,2.59.56c.86.18,1.72.41,2.58.61l1.29.31c.43.1.86.21,1.28.33,1.71.46,3.42.89,5.11,1.41l2.54.76,2.52.82A151.71,151.71,0,0,1,667,328q4.39,3,8.57,6.31t8.12,6.89q3.94,3.6,7.65,7.45t7.15,8c2.3,2.73,4.5,5.54,6.63,8.42s4.15,5.83,6.08,8.84,3.77,6.1,5.5,9.25,3.34,6.37,4.75,9.69c-.54-1.72-1.17-3.42-1.85-5.09s-1.38-3.34-2.12-5-1.53-3.28-2.35-4.89c-.4-.82-.82-1.61-1.24-2.42s-.85-1.6-1.3-2.38c-.87-1.59-1.78-3.16-2.71-4.71-.47-.78-.94-1.55-1.42-2.32s-1-1.54-1.47-2.29c-2-3-4.07-6-6.26-8.91s-4.49-5.72-6.89-8.46-4.89-5.4-7.48-8a148.6,148.6,0,0,0-16.66-14.21c-.37-.27-.73-.55-1.11-.81l-1.12-.79c-.75-.52-1.49-1.06-2.26-1.56l-2.28-1.52-2.32-1.47c-.77-.5-1.56-.95-2.35-1.43s-1.57-.94-2.37-1.39l-2.39-1.35-2.43-1.29c-3.25-1.69-6.55-3.29-9.92-4.73-1.67-.76-3.38-1.42-5.08-2.11-.85-.34-1.71-.65-2.57-1l-1.29-.48c-.43-.16-.87-.3-1.3-.45l-2.6-.89c-.87-.29-1.75-.56-2.62-.83-1.74-.57-3.51-1-5.28-1.56-.44-.13-.88-.24-1.32-.35l-1.34-.35-1.33-.34-1.33-.32-2.68-.61-1.35-.29-1.34-.27A179.42,179.42,0,0,0,588,295l-3.91-.3.63,3.87,1.88,11.74,1.92,11.73,1.92,11.73,2,11.72c1.29,7.82,2.63,15.63,4,23.45l2,11.71,2,11.71.24,1.41Z" transform="translate(-260.85 -124.41)"/><path class="cls-3" d="M579.36,329c-.11-3.44-.25-6.87-.39-10.31l-.24-5.15c-.08-1.72-.16-3.43-.26-5.15l-.28-5.15-.3-5.14q-.24-4.11-.53-8.22a95.66,95.66,0,0,1,11-.72c1.1,0,2.2,0,3.3,0s2.2,0,3.3.11c2.2.08,4.41.23,6.61.43,4.41.38,8.82,1,13.21,1.71,1.1.18,2.2.37,3.29.57s2.2.41,3.29.64c2.2.44,4.38.91,6.56,1.45a98,98,0,0,0-12.72-4.51q-3.26-.93-6.56-1.68c-2.21-.51-4.43-.94-6.67-1.32s-4.48-.69-6.74-.92c-1.13-.12-2.27-.2-3.4-.3s-2.28-.16-3.42-.18a84.21,84.21,0,0,0-13.73.55l-2,.25.1,2.1c.16,3.44.32,6.87.51,10.3l.29,5.15.31,5.15c.1,1.71.21,3.43.33,5.14l.35,5.15c.25,3.42.5,6.85.78,10.28q.84,10.28,1.89,20.55c.72,6.84,1.49,13.69,2.5,20.51.22-6.89.2-13.78.14-20.66s-.24-13.76-.48-20.63" transform="translate(-260.85 -124.41)"/><path class="cls-3" d="M632.16,466.33l-.23.5-.26.54c-.17.36-.36.72-.55,1.08-.37.72-.76,1.44-1.17,2.15q-1.22,2.13-2.57,4.18c-.91,1.37-1.86,2.7-2.86,4s-2,2.59-3.11,3.81a61.28,61.28,0,0,1-7,6.85c-.62.53-1.27,1-1.91,1.52l-1,.72-.49.36-.51.34-1,.69-1,.64-.52.33-.53.3-1.06.6-1,.57,0,1c-.21,5.32-.39,10.64-.58,16s-.35,10.65-.5,16-.3,10.65-.43,16l-.1,4-.07,4q-.09,4-.14,8c.28-2.65.53-5.3.79-7.95l.39-4,.37-4q.75-8,1.45-15.92c.47-5.3.91-10.61,1.36-15.91q.61-7.41,1.21-14.82l.23-.11.58-.31.58-.32,1.15-.66,1.12-.69.56-.35.55-.36,1.1-.74c.71-.52,1.44-1,2.13-1.56a65.21,65.21,0,0,0,7.77-7.08,74.5,74.5,0,0,0,6.61-8.13q1.51-2.15,2.88-4.4c.46-.74.9-1.5,1.33-2.28.21-.36.41-.73.61-1.1l10.45-1.58,11.76-1.78c7.83-1.21,15.66-2.41,23.49-3.65l11.74-1.85,11.74-1.88,11.73-1.9,7.81-1.27c-.55,5.74-1.34,11.45-2.43,17.11l-.24,1.3c-.09.44-.19.87-.28,1.3l-.56,2.59c-.18.87-.41,1.72-.61,2.58l-.31,1.29c-.1.43-.2.86-.32,1.29-.47,1.7-.9,3.42-1.42,5.11-.25.84-.49,1.69-.76,2.54l-.82,2.52a150.8,150.8,0,0,1-18.74,37.93q-3,4.41-6.31,8.57c-2.2,2.78-4.5,5.5-6.89,8.13s-4.88,5.17-7.45,7.64-5.23,4.85-8,7.15-5.55,4.51-8.42,6.63-5.83,4.15-8.85,6.09-6.1,3.77-9.25,5.49a104.49,104.49,0,0,1-9.68,4.75c1.72-.54,3.41-1.17,5.08-1.84s3.34-1.38,5-2.13,3.27-1.53,4.89-2.34c.81-.41,1.61-.83,2.41-1.25s1.6-.85,2.39-1.29c1.59-.87,3.15-1.79,4.71-2.71l2.31-1.43c.77-.49,1.54-1,2.3-1.46q4.56-3,8.9-6.27t8.46-6.88c2.74-2.4,5.41-4.89,8-7.49a147.62,147.62,0,0,0,14.2-16.66c.27-.37.55-.73.81-1.1l.79-1.12c.53-.75,1.06-1.5,1.56-2.26l1.52-2.29,1.47-2.32c.5-.77,1-1.56,1.43-2.34s1-1.57,1.39-2.37l1.35-2.39,1.29-2.43c1.69-3.25,3.29-6.55,4.74-9.92.75-1.68,1.41-3.38,2.11-5.08.33-.86.64-1.72,1-2.58l.48-1.29c.16-.42.3-.86.46-1.29l.89-2.61c.29-.86.55-1.74.83-2.62.57-1.74,1-3.51,1.55-5.27.13-.44.25-.88.36-1.33l.34-1.33.34-1.33c.11-.45.23-.89.32-1.34l.61-2.68c.1-.45.21-.89.3-1.34l.27-1.35a179.14,179.14,0,0,0,3-21.75l.3-3.9-3.88.62L716.18,451l-11.74,1.91-11.73,1.92-11.72,2q-11.73,1.95-23.44,4l-11.72,2-11.71,2-1.41.25Z" transform="translate(-260.85 -124.41)"/><path class="cls-3" d="M697.56,443.81c3.43-.11,6.87-.26,10.3-.4l5.15-.24,5.15-.25,5.15-.28,5.15-.31c2.74-.16,5.48-.34,8.22-.52a97.79,97.79,0,0,1,.72,11c0,1.1,0,2.2,0,3.3s0,2.2-.1,3.3c-.09,2.21-.24,4.41-.44,6.62-.38,4.41-1,8.81-1.7,13.21-.18,1.1-.37,2.19-.58,3.29s-.41,2.19-.63,3.29c-.45,2.19-.92,4.38-1.46,6.56A99.17,99.17,0,0,0,737,479.63c.61-2.17,1.18-4.35,1.67-6.56s.94-4.43,1.32-6.66.69-4.49.92-6.75c.13-1.13.21-2.26.31-3.4s.15-2.27.18-3.41a85.31,85.31,0,0,0-.56-13.73l-.24-2-2.11.1c-3.43.17-6.87.32-10.3.52L723,438l-5.14.31c-1.72.1-3.43.22-5.15.34l-5.14.35c-3.43.25-6.86.5-10.29.78q-10.27.83-20.55,1.88c-6.84.72-13.68,1.5-20.51,2.5,6.9.22,13.78.21,20.67.14s13.75-.24,20.63-.47" transform="translate(-260.85 -124.41)"/><polygon points="229.63 507.08 240.29 478.45 248.15 474.85 265.32 481.25 268.91 489.12 265.72 497.7 257.13 494.5 258.2 491.64 256.4 487.71 250.67 485.58 246.74 487.38 240.34 504.55 242.14 508.49 247.87 510.62 251.8 508.82 252.87 505.96 261.45 509.16 258.25 517.74 250.4 521.34 233.22 514.94 229.63 507.08"/><polygon points="285.99 521.16 289.03 521.38 290.81 497.01 287.78 496.79 288.45 487.65 303.67 488.77 303 497.91 299.96 497.68 298.17 522.05 307.31 522.72 307.53 519.67 316.66 520.34 315.77 532.52 285.32 530.29 285.99 521.16"/><polygon points="347.52 524.39 341.66 497.53 338.69 498.18 336.73 489.22 351.65 485.97 353.6 494.93 350.62 495.58 355.18 516.47 358.81 518.81 361.8 518.16 364.13 514.52 359.58 493.63 356.59 494.28 354.64 485.32 369.56 482.07 371.51 491.02 368.52 491.68 374.38 518.54 369.71 525.8 354.79 529.06 347.52 524.39"/><path d="M663.55,630l2.66-1.49-12-21.29-2.66,1.49-4.5-8,24-13.5,8.32,2.33,6,10.64h0l-.57,2.07,2.08.58,7.5,13.31L692,624.43l-24,13.5Zm10.79-30.62-4.16-1.16-8,4.5,3,5.32,8-4.5Zm9,16-1.49-2.66-4.16-1.17-8,4.5,4.5,8,8-4.5Z" transform="translate(-260.85 -124.41)"/><path class="cls-3" d="M770.21,659.89,773,657.1l95.64,96.51c0,.06,0,.12-.08.19l.12.12,9.9,10,.1.1,0,0,0,0h0A41.94,41.94,0,0,0,899,744l-.13-.14-10-10-.12-.12-.19.08-95.62-96.48,2.85-2.82.3-.32a4.66,4.66,0,0,0,1.29-3.43,2.64,2.64,0,0,0-.27-.89,2,2,0,0,0-.36-.48l-9-9.08a2.15,2.15,0,0,0-.48-.36,2.51,2.51,0,0,0-.88-.27A4.65,4.65,0,0,0,783,621l-.33.3-4.41,4.37,11,11.09-4.81,4.78-11-11.09-.5-.51,3.41-3.38-20.92-21.1-13.93,13.81,21.42,21.61-1.9,1.89h0l-3.92,3.88c-1.68,1.66-2.11,4-1,5.12l9,9.08c1.15,1.16,3.46.74,5.13-.92m18.2-18.63.3.3,62.93,64.9-3.44-.31,3.57,4.8-15.53-13.7,55.9,55.08L891,753.46l-73.71-73.39L838,704.21l-56-56-.29-.3Zm-20.5-6.42.7-.69-11.94-12-.7-3,2.15.78,12.32,12.44.51.5,11,11.09-2.53,2.51-11-11.09Z" transform="translate(-260.85 -124.41)"/><path class="cls-3" d="M393.4,228.55l-2.82,2.79-95.64-96.5a1.54,1.54,0,0,1,.08-.19l-.12-.12-9.9-10-.1-.1,0,0,0,0h0a41.86,41.86,0,0,0-20.19,20l.13.14,10,10,.12.12.19-.08,95.62,96.47-2.85,2.82-.3.32a4.7,4.7,0,0,0-1.29,3.44,2.51,2.51,0,0,0,.27.88,1.88,1.88,0,0,0,.36.49l9,9.08a2.15,2.15,0,0,0,.48.36,2.51,2.51,0,0,0,.88.27,4.66,4.66,0,0,0,3.44-1.26l.33-.29,4.41-4.38-11-11.08,4.81-4.78,11,11.09.5.51-3.41,3.37L408.23,283l13.93-13.81-21.42-21.61,1.9-1.89,3.92-3.88c1.68-1.66,2.11-4,1-5.12l-9-9.08c-1.15-1.16-3.46-.75-5.13.91m-18.2,18.64-.3-.31L312,182l3.44.32-3.57-4.8,15.53,13.7-55.89-55.08,1.14-1.13,73.71,73.38-20.69-24.13,56,56,.29.3Zm20.5,6.42-.7.69,11.94,12,.7,3-2.15-.77-12.32-12.44-.51-.51-11-11.09,2.53-2.5,11,11.08Z" transform="translate(-260.85 -124.41)"/><path class="cls-3" d="M796.34,256.94l-2.79-2.81,96.5-95.65.19.08.12-.11,10-9.9.1-.1,0,0,0,0h0a41.82,41.82,0,0,0-20-20.2l-.14.14-10,10-.12.11a1.67,1.67,0,0,1,.08.2l-96.47,95.62L771,231.37c-.11-.11-.21-.21-.32-.3a4.7,4.7,0,0,0-3.44-1.29,2.51,2.51,0,0,0-.88.27,2.09,2.09,0,0,0-.49.35l-9.08,9a2.74,2.74,0,0,0-.36.48,2.65,2.65,0,0,0-.27.88,4.68,4.68,0,0,0,1.26,3.45c.09.11.19.22.29.32l4.38,4.42,11.08-11,4.78,4.81-11.09,11-.51.51L763,250.86l-21.11,20.92,13.81,13.93,21.61-21.42,1.89,1.9,3.88,3.92c1.66,1.68,4,2.11,5.12,1l9.08-9c1.16-1.14.75-3.45-.91-5.13M777.7,238.75l.31-.3,64.9-62.93-.32,3.44,4.8-3.57-13.7,15.52L888.77,135l1.13,1.15-73.38,73.71,24.13-20.69-56,56-.3.3Zm-6.42,20.49-.69-.69-12,11.94-3,.7.77-2.15,12.44-12.33.51-.5,11.08-11,2.51,2.53-11.08,11Z" transform="translate(-260.85 -124.41)"/><path class="cls-3" d="M365,633.76l2.78,2.82-96.5,95.64-.19-.08-.12.12-10,9.9-.1.1,0,0,0,0h0a41.94,41.94,0,0,0,20,20.19l.13-.14,10-10,.12-.12c0-.06-.05-.12-.08-.19l96.47-95.62,2.83,2.85.31.3a4.68,4.68,0,0,0,3.44,1.28,2.31,2.31,0,0,0,.88-.26,1.88,1.88,0,0,0,.49-.36l9.08-9a2.15,2.15,0,0,0,.36-.48,2.51,2.51,0,0,0,.27-.88,4.68,4.68,0,0,0-1.25-3.45l-.3-.32-4.38-4.41-11.08,11-4.78-4.82,11.09-11,.51-.5,3.38,3.41,21.1-20.92L405.66,605l-21.61,21.42-1.89-1.9-3.88-3.92c-1.66-1.68-4-2.11-5.12-1l-9.08,9c-1.16,1.15-.74,3.46.92,5.13M383.63,652l-.3.3-64.9,62.93.31-3.44-4.8,3.56,13.7-15.52-55.08,55.89-1.13-1.14,73.38-73.71-24.13,20.68,56-56,.3-.3Zm6.42-20.5.69.7,12.05-11.94,3-.7-.78,2.14L392.56,634l-.51.5-11.08,11L378.46,643l11.09-11Z" transform="translate(-260.85 -124.41)"/><path d="M379.06,485.25C393,494.66,400.9,507.37,403.28,524a37.11,37.11,0,0,1-24.22-38.77" transform="translate(-260.85 -124.41)"/><path d="M440.53,578.33c-16.16,2.35-33-7.9-38.49-23.46,10.71-1.33,33.63,12.64,38.49,23.46" transform="translate(-260.85 -124.41)"/><path d="M399,501.38c-11.09-11.38-13.29-30.8-3.64-44.89,7.24,7,9.47,34.12,3.64,44.89" transform="translate(-260.85 -124.41)"/><path d="M418.71,553c-18.5-1.9-31.08-17.81-32-31.54,11.84,2.29,29.45,19.62,32,31.54" transform="translate(-260.85 -124.41)"/><path d="M425.66,584.51c16.55-1.3,30.71,3.64,43.06,15-15.39,6.1-35.66-1.64-43.06-15" transform="translate(-260.85 -124.41)"/><path d="M411.68,483.57c4.73,9.15,2.93,29.35-3.34,38.21-8.07-8.45-9.56-27,3.34-38.21" transform="translate(-260.85 -124.41)"/><path d="M444.27,573.6c-13.74-7-18.31-24.27-12.06-36.37,7.28,4.42,14.55,26.26,12.06,36.37" transform="translate(-260.85 -124.41)"/><path d="M451.69,561.18A47.76,47.76,0,0,1,472,593.86c-13.21-2.31-24.21-17.91-20.29-32.68" transform="translate(-260.85 -124.41)"/><path d="M423.18,549.33c-11.38-8.72-13.48-26.71-4.53-38.15,6.34,6.35,9.07,29,4.53,38.15" transform="translate(-260.85 -124.41)"/><path d="M790,464.75c-13.18,10.44-20.1,23.72-21.21,40.5A37.12,37.12,0,0,0,790,464.75" transform="translate(-260.85 -124.41)"/><path d="M735.72,562.22c16.3,1.12,32.31-10.37,36.61-26.3-10.78-.52-32.58,15.14-36.61,26.3" transform="translate(-260.85 -124.41)"/><path d="M771.28,482.35c10.2-12.18,10.92-31.71.23-45-6.69,7.52-6.86,34.73-.23,45" transform="translate(-260.85 -124.41)"/><path d="M755.56,535.32c18.31-3.3,29.65-20.12,29.49-33.88-11.63,3.19-27.88,21.8-29.49,33.88" transform="translate(-260.85 -124.41)"/><path d="M751,567.26c-16.6,0-30.35,6-41.8,18.18,15.81,4.92,35.44-4.34,41.8-18.18" transform="translate(-260.85 -124.41)"/><path d="M757.32,465.55c-4,9.48-.7,29.48,6.22,37.84,7.41-9,7.49-27.64-6.22-37.84" transform="translate(-260.85 -124.41)"/><path d="M731.64,557.79c13.17-8,16.42-25.58,9.27-37.18-6.93,5-12.52,27.29-9.27,37.18" transform="translate(-260.85 -124.41)"/><path d="M723.3,546a47.81,47.81,0,0,0-17.76,34.12c13-3.3,22.78-19.7,17.76-34.12" transform="translate(-260.85 -124.41)"/><path d="M750.83,532c10.69-9.57,11.42-27.67,1.63-38.39-5.84,6.81-6.85,29.62-1.63,38.39" transform="translate(-260.85 -124.41)"/><path d="M692.25,445.25l-.14-1.9c-.1-1.36-.2-2.72-.29-4.08a170.56,170.56,0,0,0-6.41-36.39,178.59,178.59,0,0,0-21-45.41,146.32,146.32,0,0,0-10.28-14.05,72.35,72.35,0,0,0-19.79-17.1,57.92,57.92,0,0,0-23.87-7.49l-.41-.11a5.3,5.3,0,0,0-1.19-.14h-6.51a5.1,5.1,0,0,0-.87.07l-1.77.29c-1.43.22-2.92.45-4.45.82a39.44,39.44,0,0,0-14.69,6.76c-1.25-.89-2.55-1.79-3.94-2.6a38.74,38.74,0,0,0-16.1-5.08l-.26-.08a5.11,5.11,0,0,0-1.35-.18h-6.5a6,6,0,0,0-.75.05l-1.78.26c-1.31.19-2.66.38-4,.61a58.74,58.74,0,0,0-27.8,13c-7.74,6.39-14.65,14.5-21.13,24.81-11.45,18.23-19.07,35.88-23.27,53.94a176.64,176.64,0,0,0-4.07,26.51c-.11,1.44-.15,2.85-.19,4.21,0,.84,0,1.64-.08,2.43,0,.07-.05.2-.07.3s-.1.45-.14.67a5,5,0,0,0-.09.94v12.31c0,.11,0,.23,0,.34l.14,2.11c.1,1.54.2,3.07.31,4.61a146,146,0,0,0,4.5,28.63,117.84,117.84,0,0,0,18.71,38.31c7.42,10.19,15.48,18,24.63,23.85a63.3,63.3,0,0,0,27.47,9.85l1.65.19.74.08.57,0h7a4.12,4.12,0,0,0,.7,0l1.79-.23c1.37-.18,2.78-.37,4.21-.62a31.93,31.93,0,0,0,19.27-11.25c.61.71,1.23,1.42,1.88,2.11,4.9,5.24,11.45,8.44,19.5,9.52l2.61.33,1.19.15a4.68,4.68,0,0,0,.64,0h7a4.12,4.12,0,0,0,.7,0l2-.26c1.49-.19,3-.39,4.59-.65a62.52,62.52,0,0,0,25.15-10.49c8.82-6,16.66-14,23.95-24.32a121.52,121.52,0,0,0,15.67-30.72,110.57,110.57,0,0,0,3.83-15.37,182.23,182.23,0,0,0,2.54-20.45c.09-1.14.16-2.28.23-3.39,0-.5.06-1,.1-1.5,0-.11,0-.22,0-.33V445.62c0-.12,0-.24,0-.37" transform="translate(-260.85 -124.41)"/><path class="cls-3" d="M554.77,561.52h-7l-2.4-.27a58,58,0,0,1-25.27-9.07c-9.28-5.94-16.81-13.71-23.26-22.56A112.36,112.36,0,0,1,479,493a142.67,142.67,0,0,1-4.34-27.65l-.45-6.69V446.32a12.19,12.19,0,0,0,.29-1.58c.11-2.19.1-4.39.27-6.58a169.57,169.57,0,0,1,3.95-25.74c4.38-18.82,12.39-36.09,22.62-52.38,5.54-8.82,12-16.92,20.06-23.59a53.18,53.18,0,0,1,25.38-11.91c1.9-.32,3.8-.57,5.71-.85H559a4.05,4.05,0,0,0,.76.2,33.78,33.78,0,0,1,14.37,4.44c2.35,1.37,4.5,3.07,6.79,4.67a33.08,33.08,0,0,1,15.61-8.27c1.94-.47,3.93-.7,5.9-1h6.51a5.46,5.46,0,0,0,.87.2,52.68,52.68,0,0,1,22,6.86,66.83,66.83,0,0,1,18.39,15.91,140.93,140.93,0,0,1,9.92,13.56,172.35,172.35,0,0,1,20.39,44.11,163.91,163.91,0,0,1,6.21,35.29c.14,2,.29,4,.44,6V459.1c-.11,1.61-.2,3.22-.33,4.83a180,180,0,0,1-2.46,19.89,106.08,106.08,0,0,1-3.64,14.66,116,116,0,0,1-15,29.43c-6.29,8.92-13.59,16.86-22.65,23.05a57.85,57.85,0,0,1-23.12,9.67c-2.13.36-4.27.6-6.41.89h-7c-1.25-.16-2.51-.3-3.76-.47-6.35-.86-12-3.2-16.45-7.95-2-2.16-3.84-4.51-5.76-6.78-.88,1.15-1.8,2.39-2.74,3.61a27.13,27.13,0,0,1-17.26,10.77c-1.93.34-3.88.55-5.82.82M530.2,345.57l-.4-.38a9.9,9.9,0,0,0,1.13-.56c2-1.37,3.87-2.82,5.87-4.12,2.52-1.64,2.72-2,2.24-4.92-.32-1.9-1.32-2.72-3.15-2.29a23.86,23.86,0,0,0-15.74,11.28,6.54,6.54,0,0,0-.7,5.58,63.56,63.56,0,0,0,2.21,6.21,12.42,12.42,0,0,0,2.4,3.37c1.3,1.37,2.32,1.41,3.93.42q6.62-4,13.21-8.1a66.94,66.94,0,0,0,6.31-4.11c3.84-3.05,5.65-7.33,6.74-12,.07-.29.26-.69.49-.78,3.65-1.43,7.3-1.11,11,0a2.6,2.6,0,0,1-.77.17c-2.39.22-4.78.4-7.15.69-.93.11-1.79.44-1.66,1.75a6.92,6.92,0,0,1-.33,1.93,25.81,25.81,0,0,1-4.32,9c-1.88,2.79-1.8,2.8.19,5.5a18.56,18.56,0,0,1,1.44,2.85l-.32.17c-.16-.17-.31-.33-.46-.51a7.49,7.49,0,0,0-9-2.32,34,34,0,0,0-4.2,2.16c-5.37,3.14-10.71,6.33-16.07,9.5a33,33,0,0,0-10.73,9.41c-3.42,4.95-3.13,10.43.88,14.9,1.2,1.33,2.54,2.54,3.79,3.78a11.59,11.59,0,0,1-6.89-3.45c-4.87-4.9-4.41-13.71,1-18a12.64,12.64,0,0,0,4.15-5.58c.47-1.27,1-2.51,1.41-3.8a16.5,16.5,0,0,0,1-6.71c-.19-2-1.54-2.9-3.41-2.27a6.69,6.69,0,0,0-2.13,1.12,29.21,29.21,0,0,0-3.69,3.51c-5,6-8.45,12.95-11.63,20-2,4.5-1.84,9.26,1.66,13.12,1.44,1.59,1.9,2.69,1.32,4.85a16.69,16.69,0,0,0,1.73,12.11c1.11,2.13,2.46,4.14,3.77,6.31l-3.74-2.79a12.82,12.82,0,0,1-5.41-12c.31-3.79-.91-7.15-2.63-10.37-.34-.63-1.26-1.43-1.79-1.35s-1.2,1-1.78,1.6a.83.83,0,0,0-.13.32c-1,3.17-2.06,6.31-2.93,9.51a33.06,33.06,0,0,0-1.5,10.17,6,6,0,0,0,3,5.37,58,58,0,0,1,6,4.07c3.48,2.65,7,5.31,11,7,2.72,1.12,5,.15,6-2.58,1.21-3.17,2.33-6.38,3.41-9.6s2-6.41,3.09-9.59a18.43,18.43,0,0,1,1.28-2.45,2.17,2.17,0,0,1,.14,1.25c-.26,2.27-.66,4.52-.73,6.79-.07,2.12.53,2.91,2.54,3.27a47.88,47.88,0,0,0,6.67.56,39.54,39.54,0,0,0,4.2-.28,7.4,7.4,0,0,0-3.22,6.46c0,2.63.19,5.25.32,7.88,0,.62.11,1.23.17,1.85s.11,1.12.17,1.68a14,14,0,0,1-2.34-7.71c-.1-2-.15-3.94-.24-5.91-.08-1.68-.62-2.17-2.33-2.11-.81,0-1.62.09-2.43.08a6.31,6.31,0,0,0-6.15,4,89.5,89.5,0,0,0-3.48,9.3,9.64,9.64,0,0,0,1.7,9.21,54.7,54.7,0,0,0,4.74,5.54c5.5,5.37,12.31,6.92,19.75,6.44a1.57,1.57,0,0,0,1.65-1.81c-.16-1.84-.57-3.65-.72-5.49a71.07,71.07,0,0,1-.48-9.32c.24-4.64,2.54-8.29,6.16-11.24a11.2,11.2,0,0,0,4.51-8.91,29.22,29.22,0,0,0-2.44-11.83,8.4,8.4,0,0,0-6.35-5.25c-3.18-.58-6.43-.78-9.64-1.21-1.93-.26-3.85-.65-5.77-1,0-.13,0-.26,0-.39,4.09-.49,8.18-.94,12.27-1.47a23.46,23.46,0,0,0,7.87-2.24c3.08-1.61,5-4.27,6.68-7.21,1.46-2.6,2.83-5.25,4.41-7.76a7.21,7.21,0,0,0,1.27-4,28.73,28.73,0,0,0-.26-3.58c-.22-1.76-.53-3.5-.8-5.25a26.45,26.45,0,0,1,3.28,7.89c.48,2,.44,3.84-1.17,5.42a8.81,8.81,0,0,0-1.43,2.11c-1.87,3.29-3.62,6.65-5.58,9.89a14.27,14.27,0,0,0-2.14,9.64,82,82,0,0,0,1.63,8.52A19.73,19.73,0,0,1,549,423a72.06,72.06,0,0,0-3.66,6.32,25.58,25.58,0,0,0-2.88,12.6,39.55,39.55,0,0,0,2.56,11.7,17.9,17.9,0,0,0,4.59,7.29,46.14,46.14,0,0,0,19,10.95c1.59.47,3.18,1,4.8,1.3,2,.39,2.9-.24,3.41-2.27a20,20,0,0,0,.44-2.15c.88-6,.37-12.05-.11-18.07-.39-4.81-.88-9.63-1-14.45-.08-3.9.48-7.8.58-11.71.23-9,.35-17.93.52-26.9a11.42,11.42,0,0,0-2.17-7.29c-.62-.82-1.34-1.18-2.18-.69a9.59,9.59,0,0,0-2.7,2.09c-3.72,4.58-5.36,10-6.21,15.75-.06.4-.13.8-.2,1.19l-.44-.06a49.86,49.86,0,0,1,.63-7.47c.89-3.94,2.2-7.79,3.35-11.67,1-3.21,1.79-6.41.53-9.82.91.93,1.63,2,2.43,3,.55.68,1.11,1.58,1.84,1.82a4.46,4.46,0,0,0,5.55-4.54c-.2-2.82-.34-5.64-.45-8.46a95.3,95.3,0,0,1,.64-18.87c.55-3.47-.9-6.22-3.61-7.49-3-1.41-6.6-1.53-9.28,1-1.15,1.1-2.39,2.1-3.59,3.15a32,32,0,0,1,2.18-3.69c1.49-2.33,3.44-3.73,6.38-3.62a25.05,25.05,0,0,0,5.18-.43c1.56-.28,2-1.29,1.67-2.85a6.84,6.84,0,0,0-2.68-4c-7.31-5.58-15.44-8.07-24.58-5.87a8.67,8.67,0,0,0-6.87,7.09,7.42,7.42,0,0,1-4.22,5.69c-2.75,1.36-5.55,2.62-8.32,3.93M568,537.72l.19.1c-.18.54-.33,1.09-.56,1.61a15.79,15.79,0,0,1-5.36,6.4,29.12,29.12,0,0,1-15.12,5.27,24,24,0,0,0-4.75.92,1.2,1.2,0,0,0-.43,2.23,7.2,7.2,0,0,0,3,1.42,39.83,39.83,0,0,0,13.16.51c6.54-1,11.85-3.9,15.17-9.84,1-1.82,2-3.67,2.86-5.56a16.28,16.28,0,0,0,.82-12.09c-.75-2.44-1.9-3.43-4.47-3.36a100.69,100.69,0,0,0-10.86.72,18.05,18.05,0,0,0-8.39,3.13,4.27,4.27,0,0,0-1.74,3.15c-.11,1-.24,2.07-.37,3.1,0,.34-.1.69-.17,1s-.17.59-.26.88l-.34,0c-.14-1.25-.31-2.5-.42-3.75-.33-3.65-1.17-4.58-4.77-5-2.34-.28-4.62-.65-6.09-2.81-2.16-3.19-2.48-6.79-2.43-10.5a3.47,3.47,0,0,1,.49.85c.83,1.7,1.54,3.47,2.51,5.09,1.32,2.19,3,4.11,5.73,4.5a18.11,18.11,0,0,0,13.39-3.27,4.83,4.83,0,0,0,2.43-3.9c-.08-4.45-.27-8.89-.64-13.32a39.82,39.82,0,0,0-1.38-5.82c.4.47.68.77.93,1.09,2.54,3.27,3.3,7.17,3.93,11.12.36,2.25.68,4.51,1.22,6.71a3.63,3.63,0,0,0,1.51,2.08c4.9,2.83,10.91-.31,10.91-5.91,0-5-.62-9.94-1-14.9a59.73,59.73,0,0,1-.54-7A14.94,14.94,0,0,0,572.72,482a26.43,26.43,0,0,0-11-7.65c-4-1.61-8.13-2.95-12.24-4.27a7.48,7.48,0,0,0-3.2-.14,28.18,28.18,0,0,0-10.33,3.92c-.66.39-1.3.83-1.95,1.24l-.26-.29a24.84,24.84,0,0,1,2.82-3c2.38-1.85,4.89-3.53,7.33-5.29,1.82-1.31,2-2.5.43-4.09a22.76,22.76,0,0,0-3.45-2.71c-3.05-2.07-6.65-2.6-10.14-3.44s-7.21-1.73-10.3-4c-5.82-4.27-9.42-10.12-12.12-16.66a7.56,7.56,0,0,0-2-3c-4.7-3.77-9.5-7.42-14.3-11.07-3.28-2.49-6.88-1.15-9.12,1.31a10.44,10.44,0,0,0-2.82,5.51c-.53,3.82-.83,7.68-1.18,11.52-.13,1.49-.14,3-.21,4.54,2.54.07,4.77-.69,7.05-1.2a4.6,4.6,0,0,0,3.85-3.62,21.41,21.41,0,0,1,3.56-7,3.26,3.26,0,0,1,.55-.44c-.13,6.2,3,9.84,8.66,11.64a9.7,9.7,0,0,1-5.54-1.22c-1-.58-1.93-1.29-2.94-1.86-1.54-.87-2.55-.47-2.91,1.26a11.4,11.4,0,0,0,2.85,10.63,29.61,29.61,0,0,0,8,5.73c3.61,1.91,7.26,3.76,10.9,5.64,2.52-3.64,4.65-5.55,6.89-5.91-.18.29-.52.4-.75.64-1.47,1.48-3.2,2.9-3.63,5a44.63,44.63,0,0,0-.93,8.15c-.05,2.34.56,4.72,2.74,6.09,4.9,3.09,10,5.44,16,6a40.9,40.9,0,0,1,18.32,6.38c1.37.87,2.61,2,3.9,3-.25.2-.36.19-.45.15a57.31,57.31,0,0,0-12.78-4.75c-3.71-.89-7.46-1.65-11.22-2.27a12.4,12.4,0,0,0-4.82.06,26.33,26.33,0,0,0-4.82,2.13c-.49.23-1,.5-1.28.66a18.21,18.21,0,0,0-.3-3.26c-.49-1.84-1.9-3-3.31-4.2a8.56,8.56,0,0,1-2.29-2.52,71.67,71.67,0,0,1-3.25-7.54,14.64,14.64,0,0,0-6-7.71c-3.34-2.1-6.66-4.22-10-6.31a10.12,10.12,0,0,1-4.19-5.37,24.62,24.62,0,0,0-1.78-4,3.58,3.58,0,0,0-3.41-1.84c-1.47.11-2.13,1.33-2.71,2.57a24.71,24.71,0,0,0-1.85,9.26c0,.81,0,1.62-.08,2.43-.32,4.15,1.91,6.33,5.11,7.69,2.41,1,5,1.74,7.44,2.56a7.66,7.66,0,0,0,1.71.3c1.75.12,2.27-.23,2.86-1.86.31-.85.59-1.7.88-2.56l.43.09c-.27,3.14-.65,6.28-.79,9.44a42.27,42.27,0,0,0,.1,8.42,21.18,21.18,0,0,0,4.87,9.86,13.13,13.13,0,0,0,5.74,4.33,3.62,3.62,0,0,0,3.7-.56c.72-.55,1.47-1.07,2.2-1.6l.32.3a33.53,33.53,0,0,1-2.85,3.2c-2.31,2-3.56,2.06-6.15.42a24.38,24.38,0,0,1-8-8.82,15.68,15.68,0,0,1-2.42-7.41c-.07-2.12,0-4.25-.21-6.36-.26-3.14-1.89-5.21-4.53-5.94-1.94-.54-3.88-1-5.82-1.52-2.72-.65-4.81.61-5.12,3.37a30.09,30.09,0,0,0,.08,6.22,17.47,17.47,0,0,0,1.05,4.26c.56,1.59,1.34,1.89,2.87,1.23a12.29,12.29,0,0,0,2.71-1.55c1.67-1.35,3.23-2.82,4.84-4.24a11.54,11.54,0,0,1-1.72,3.65,32.49,32.49,0,0,1-3.87,3.82,6.94,6.94,0,0,0-2.42,6.77,37.4,37.4,0,0,0,7.34,16.94A8.1,8.1,0,0,0,495,514.2a2.36,2.36,0,0,0,3.18-2.59,5.31,5.31,0,0,0-.37-1.46c-1-2.48-2-4.94-2.9-7.44a11,11,0,0,1-.7-5.86,25.44,25.44,0,0,0,5.23,11.09c2.33,3.05,4.91,5.87,8.75,6.94a54.68,54.68,0,0,0,6.42,1c-2.12,2.36-3.69,5.19-2.56,8.81a15.86,15.86,0,0,0,5.93,8,3.15,3.15,0,0,1-1.08-.31,12.87,12.87,0,0,1-7.1-10.11,5,5,0,0,0-3.95-4.43c-1.52-.43-3.09-.67-4.61-1.12a3,3,0,0,0-3.39,1.1,3,3,0,0,0-.46,3.45,23.4,23.4,0,0,0,7.45,9.48,43.21,43.21,0,0,1,8.25,8.07,9.61,9.61,0,0,0,5.2,3.3c1.78.46,3.63.35,4.74-1.28a17.86,17.86,0,0,0,3.36-7.92c.39-3.26-.94-6-3-8.39a10.49,10.49,0,0,1-2.46-8.31c.29-2.8.6-5.61,1-8.39a18.94,18.94,0,0,1,4.39-9.64,5,5,0,0,1-.3.95,44.05,44.05,0,0,0-1.48,4.74c-.51,2.55.64,3.76,3.12,3.49a30.12,30.12,0,0,0,10.48-3.13,26.12,26.12,0,0,0,8.57-7,5.71,5.71,0,0,1-.48,1.6,18.17,18.17,0,0,1-4.84,5.86c-3.7,3.13-7.52,5.8-12.77,5.83-4,0-6.2,3.24-5.34,7.21a11.81,11.81,0,0,0,1.2,3.36c1.13,1.93,2.57,3.68,3.69,5.61,3,5.19,5.79,10.48,8.83,15.63,2.2,3.73,5.42,6.07,9.94,6.19a25.44,25.44,0,0,0,10.25-2.13,20.8,20.8,0,0,0,8.13-5.35c.92-1.06,1.75-2.22,2.61-3.33m21.87-80.8a21.81,21.81,0,0,1,4.14-10.4c2-2.52,4.79-4,7.54-5.51a9.9,9.9,0,0,0,4.94-5.73,24.79,24.79,0,0,0,1-4c.52-3.67,2.47-5.37,6.18-5.31a30.66,30.66,0,0,0,3.59-.05c3-.3,5.56-1.63,6.7-4.48,2.39-6,3.12-12.27,1.16-18.5-1.37-4.36-3.38-8.53-5.15-12.76a9.89,9.89,0,0,0-3.58-4.47c-1.89-1.27-3.85-2.45-5.83-3.57a18.12,18.12,0,0,1-8.16-8.73c-.38-.89-.74-1.79-1.2-2.63-2.66-5-6.48-8.54-12-10-3.7-1-6.18.42-6.89,4.13A28.33,28.33,0,0,0,583,380a29.5,29.5,0,0,1,2,12.24c-.34,4.74-.55,9.49-.76,14.23-.27,6.07-.62,12.14-.69,18.21-.05,4.32,2.41,8.37,8.44,7.78,1.69-.17,3.38-.42,5.38-.67-2.87,2.2-5.7,3.66-9.14,3.26s-5.49,1.31-5.74,4.64c-.14,1.77-.33,3.54-.58,5.3-1.24,8.64-.92,17.28-.13,25.93.13,1.38.85,1.87,2.15,1.36a24.67,24.67,0,0,0,3.17-1.68c3.53-2.06,7-4.26,10.6-6.18a7.13,7.13,0,0,0,4.08-6l.3-3.3a2.81,2.81,0,0,1,.82,1.1c2,3.92,3.65,4.81,8,4.1,2.54-.41,5.07-1,7.61-1.45a28.28,28.28,0,0,0,9.36-2.88,30.18,30.18,0,0,0,12.75-14.66c.92-2.1,1.66-4.27,2.53-6.52-2.73-.16-5.09-.54-7.2-2.38,1.59-.17,2.93-.26,4.25-.47,3.78-.6,7.31-1.79,10-4.69a18,18,0,0,0,4.53-11.17c.51-6.43.88-12.86,1.4-19.29.2-2.41,1.37-4.51,2.74-6.74-.16,1.19-.32,2.14-.42,3.09a25.19,25.19,0,0,0-.2,3c0,2.2.76,4.43,2.89,4.46,2.92.05,5.85,0,8.77-.07,2.32-.08,3-1.57,3-3.81,0-3.2-1.37-6-2.71-8.77s-2.64-5.27-5-7.18-4.74-1.61-6.77.59a49.88,49.88,0,0,1-4,3.73c-2.68,2.33-5.47,4.54-8.11,6.92a8.81,8.81,0,0,0-2.88,7.52,73.42,73.42,0,0,1,.08,8,9.71,9.71,0,0,1-2.66,6.43,30.39,30.39,0,0,0-1.35-17.3c-1.41-3.88-3.15-7.64-4.76-11.45-5.07-12-10.11-24-18.42-34.27a21.2,21.2,0,0,0-10.54-7.2,9,9,0,0,0-4.54-.3,30.37,30.37,0,0,0-11.27,5.46l-.65.48-.48-.53c.86-.66,1.69-1.35,2.58-2,2.8-1.92,5.6-3.87,8.45-5.7a3,3,0,0,0,1.51-3.46,28.8,28.8,0,0,0-1.81-5.45c-.9-1.95-2.16-2.56-4.18-1.87-3,1-5.94,2.35-8.89,3.58a5.18,5.18,0,0,0-3.14,4.16,37.14,37.14,0,0,0,.19,13.94c.78,3.87,2.88,6.16,6.84,6.77a18.32,18.32,0,0,1,6.77,2.26,2.12,2.12,0,0,0,2-.34,15.55,15.55,0,0,0,1.93-2.57l2.48-3.42.28.18c-.23.55-.45,1.12-.7,1.67a14.42,14.42,0,0,0-1.62,7.95c.35,2.61,1.71,4.8,3.08,6.94,3.05,4.77,7,8.16,13.09,8,.26,0,.7.41.79.72A115.23,115.23,0,0,0,625.78,398c3.46,6.92,4.65,14.12,1.94,21.64-1.08,3-2.37,5.79-5.57,7.18a18.88,18.88,0,0,1-7.1,1.44c-1.81.06-2.7,1-2.39,2.77a8.74,8.74,0,0,0,3.51,6,12.56,12.56,0,0,1,5.66,8.61,18.93,18.93,0,0,1,0,3.35c-.65-1.46-1.13-3.42-2.25-4.88a80.08,80.08,0,0,0-6.45-7.09c-1.59-1.63-2.75-1.45-4,.46-.88,1.32-1.65,2.71-2.53,4a5.8,5.8,0,0,1-3.53,2.65,16.13,16.13,0,0,0-8,4.7,26.62,26.62,0,0,0-5.18,8.06m53,37.26h.46a24.93,24.93,0,0,0,11.72-2.33,66.15,66.15,0,0,0,7.72-4.55,26.62,26.62,0,0,0,8.11-8.62,8.22,8.22,0,0,0,.88-7.13,1.12,1.12,0,0,0-1.49-.9,20.66,20.66,0,0,0-3.17,1.05,12.59,12.59,0,0,1-5.77,1.39c1.75-1,3.53-1.9,5.32-2.79,4.47-2.26,7.79-5.53,9.23-10.46a5.7,5.7,0,0,1,.24-.62,4.2,4.2,0,0,1,.13,2.09c-.56,1.67-1.31,3.27-1.93,4.92a7.58,7.58,0,0,0-.79,2.73c.11,3,.42,5.93.7,8.9a2.42,2.42,0,0,0,2.52,2.36,3.76,3.76,0,0,0,3.59-2.1,17.1,17.1,0,0,0,.9-2.38,46,46,0,0,0,.79-21.79,5.81,5.81,0,0,0-5.12-5.06c-1.78-.33-3.6-.44-5.4-.71a3.7,3.7,0,0,0-4.24,2.26c-1.07,2.19-2.12,4.38-3.24,6.54-2.91,5.61-6.85,10-13.42,11.28,0,0-.07,0-.11,0a7.4,7.4,0,0,0-5.65,4.81c-.33.74-.71,1.46-1,2.23-1,3.07-2.05,6.15-3.06,9.23-.95,2.9-2.2,3.8-5.27,3.91a28.29,28.29,0,0,0-6,.41A120.09,120.09,0,0,1,614,491.67a35.21,35.21,0,0,0-4.12.58c-1.6.41-3.11,1.21-4.72,1.54a51.52,51.52,0,0,1-7.42,1,8.66,8.66,0,0,1-5-1.42c1.84-.2,3.72-.31,5.57-.64a1.74,1.74,0,0,0,1.48-2.41,17.4,17.4,0,0,0-1.14-3c-.69-1.57-1.53-3.08-2.14-4.68a13.52,13.52,0,0,1-.47-2.81c1.33,2,2.49,3.92,3.88,5.69,2.46,3.1,5.62,4.85,9.72,4.49,1.93-.17,3.86-.29,5.78-.51a50.3,50.3,0,0,0,13.94-3.22,14.85,14.85,0,0,0,8.45-8.26c1.91-4.56,2.45-9.39,3.31-14.16.27-1.51.32-3.07.47-4.61a2.79,2.79,0,0,1,.55,1.19c.29,1.51.57,3,.81,4.55a1.46,1.46,0,0,0,1.89,1.38c3.68-.84,7.32-2,10-4.69a54.22,54.22,0,0,0,6.36-7.66,21.15,21.15,0,0,0,4.13-12.1,11.21,11.21,0,0,1,1.14-4.21c.74-1.77,1.81-3.41,2.61-5.17s1.85-3.41,1.92-5.16c.22-5.5-1.74-10.06-6.87-12.81a1.64,1.64,0,0,1-.25-.21,14.22,14.22,0,0,1,3.43.72,2.14,2.14,0,0,0,2.8-.85c.73-1,1.57-1.86,2.36-2.79a1.56,1.56,0,0,1-.11,1,26.64,26.64,0,0,0-1.5,4.72c-.51,3.86,3.75,9.14,7.62,9.74,1.46.22,2.32-.43,2.28-2a42.89,42.89,0,0,0-.45-5.66,29.29,29.29,0,0,0-4.21-11.92,5.23,5.23,0,0,0-3-2.44,40.6,40.6,0,0,0-4.6-1.13,15.48,15.48,0,0,0-4.35-.09c-2.9.42-5.54,2.95-5.85,5.54a29.58,29.58,0,0,0-.15,5.32c.52,8.2-2.92,14.42-9.39,19.17a2.88,2.88,0,0,0-.81.93c-1,2-1.91,4.05-3,6-1.74,3.21-3.5,6.42-5.39,9.54-4.51,7.48-11.25,11.7-19.74,13.32-1.8.34-2.27,1.18-1.57,2.91.47,1.18,1.09,2.3,1.62,3.46a13.06,13.06,0,0,1,1.14,5.26c-1.54-2-2.93-4-4.56-5.75-3.26-3.54-8-5-13-2.23a93.79,93.79,0,0,0-14,9.3c-4.45,3.61-7.33,8-7.39,13.91a22.87,22.87,0,0,0,.46,5c.51,2.29,2.21,3.84,3.89,5.34s3.55,3,5.26,4.56a21.13,21.13,0,0,1,2,2.33c-2.3-.62-4.52-1.39-6.81-1.81-1.94-.35-2.77.3-3.12,2.22a42.45,42.45,0,0,0-.59,5.64,74.73,74.73,0,0,0-.08,7.63c.14,2.63,1.19,3.84,3.7,4.38a23.38,23.38,0,0,0,10.49.12c6-1.49,9.79-5.76,12.35-11.21a3.22,3.22,0,0,0,.28-1.47,19.49,19.49,0,0,0-4.21-11.56c-.3-.36-.55-.76-1-1.37a12.68,12.68,0,0,1,5.16,4.32c1.09,1.64,2,3.4,3.07,5.06s2.14,1.86,3.64.59a18.94,18.94,0,0,0,3-3.2,3.41,3.41,0,0,1,3.17-1.52,25.87,25.87,0,0,1,2.65.29c3.66.59,7.29,1.45,11,1.76,6.94.57,13.5-.48,18.7-5.83a10.88,10.88,0,0,1-1.81,2.85c-2,1.95-4.13,3.73-6.17,5.62-3.82,3.56-4.69,7.71-2.7,12.53,1.22,3,2.76,3.88,5.91,3.3a28.29,28.29,0,0,0,13.16-5.68c3-2.42,5.73-5,7.61-8.35a14.59,14.59,0,0,0,1.86-6.32c-2.72.88-5.4,1.73-8.06,2.64a2,2,0,0,0-.85.92c-.9,1.48-1.64,3.06-2.65,4.45a8.73,8.73,0,0,1-4.29,3,6.52,6.52,0,0,1,1-1c1.57-1.45,3.53-2.89,3.57-5.09.06-2.92,1.79-3.68,4-4.26l.11,0a20.78,20.78,0,0,0,11-9.19,28.21,28.21,0,0,0,3.37-9.41c.26-1.4,0-2.16-1.34-2.66s-2.67-.72-4-1.06c-2.14-.54-3.81.27-5.35,1.72a40.74,40.74,0,0,1-5.19,4.39,29.53,29.53,0,0,1-13.59,5.21,15.88,15.88,0,0,1-7.68-1.07m-10.26,43.75c-.48,1.91-1.07,3.93-1.48,6a3.43,3.43,0,0,0,2,3.92,6.19,6.19,0,0,0,6.4-.18,17.7,17.7,0,0,0,2.32-1.73c3.27-2.92,6.57-5.81,9.74-8.85a42.82,42.82,0,0,0,4.57-5.22c1.18-1.58.49-3.05-1.47-3.33a12.94,12.94,0,0,0-3.46,0,10.65,10.65,0,0,0-6.94,3.78c-1.26,1.5-2.53,3-3.79,4.47a1.29,1.29,0,0,1,0-.9c.67-1.55,1.32-3.11,2.05-4.64a7.86,7.86,0,0,0-.11-7.54,14.7,14.7,0,0,1-1.54-4.69,32.5,32.5,0,0,1-.09-5.67,2.31,2.31,0,0,0-1.65-2.49,9,9,0,0,0-1.66-.48c-4-.62-8-1.25-12-1.81a6.29,6.29,0,0,0-4.74,1.46c-2.41,1.8-4.91,3.48-7.33,5.28a16.91,16.91,0,0,0-2.91,2.62,41.64,41.64,0,0,0-2.9,4.19c-3.62,5.68-8.85,8.05-15.46,7.63-2-.13-4-.44-6-.49-2.55-.06-3.67,1.05-3.63,3.57a43.14,43.14,0,0,0,.45,4.37,3.88,3.88,0,0,0,3,3.45,10.81,10.81,0,0,0,5.39.05,27.62,27.62,0,0,0,11.18-5.09,35.59,35.59,0,0,1,3.65-2.1l.18.29c-.53.5-1.12.95-1.6,1.49a36.85,36.85,0,0,0-3.33,4,3.42,3.42,0,0,0-.14,3.65,7.14,7.14,0,0,0,6.64,3.39c1.65-.2,3.3-.43,5-.53s3.23,0,4.84,0v.34l-1,.2c-3.55.77-7.08,1.58-10.64,2.31a4.13,4.13,0,0,1-3.71-.82c-1.66-1.46-3.33-2.89-4.92-4.41a3.3,3.3,0,0,0-3.2-.83c-1.78.37-3.54.81-5.32,1.15a2.37,2.37,0,0,0-1.92,1.93,3.25,3.25,0,0,0,1,3.39,49.8,49.8,0,0,0,5.85,4.73,24.28,24.28,0,0,0,11.78,3.41,49.18,49.18,0,0,0,17-1.49,18.78,18.78,0,0,0,8.6-4.6c.83-.85.68-1.59-.48-1.82a12.3,12.3,0,0,0-3.21-.15,6.71,6.71,0,0,1-3.69-.68c4-.88,5.41-2.26,6.27-6.21a9.08,9.08,0,0,1,2.45-4.3m12.79-165.06c-1-2.09-1.91-4-2.8-5.92-.7-1.5-1.43-3-2-4.53-2.37-6.05-5.86-11.12-11.51-14.67a19.37,19.37,0,0,1-5.09-5.12,22.64,22.64,0,0,1-3.64-8.09,10.12,10.12,0,0,0-.92-2.61,4.35,4.35,0,0,0-1.69-1.95,21.05,21.05,0,0,0-10-2.08c-3.41.26-5,2.31-4.41,5.66.07.42.12.85.18,1.27a10,10,0,0,0,5.23,7.89,34.73,34.73,0,0,1,9.88,7.75c2.22,2.56,4.52,5.06,6.73,7.63a18.81,18.81,0,0,1,4.32,7.33,50.12,50.12,0,0,0,4.54,11.25,32.31,32.31,0,0,0,6.06,8.31,4.56,4.56,0,0,0,4.56,1.23c5.78-1.48,10.28-4.67,13-10a12.94,12.94,0,0,0-.64-13.58,72.67,72.67,0,0,0-4.93-6.3,16.51,16.51,0,0,0-2.6-2.48,5.55,5.55,0,0,0-7.79,1.24,4.09,4.09,0,0,0-.35,4.17c1,2.15,2.07,4.23,3,6.38a12.2,12.2,0,0,1,.93,7.25M641,351.48a18.21,18.21,0,0,0,3-1.13c2-1.1,2.14-2.57.52-4.18-.65-.66-1.29-1.34-1.92-2-4.42-4.64-9.33-8.57-15.43-10.81-1.91-.71-3-.07-2.92,1.95a13,13,0,0,0,1,4.46,22.67,22.67,0,0,0,8.17,9.23,14.92,14.92,0,0,0,7.56,2.49m42.64,87.64c-.32-2-.68-4.2-1-6.4a2.65,2.65,0,0,0-2.44-2.38,21.88,21.88,0,0,1-3.61-.78c-1.55-.52-2.51.12-3.3,1.34a20.27,20.27,0,0,0-3.21,9.42,4.27,4.27,0,0,0,2.67,4.57,14.69,14.69,0,0,0,7.41,1.45c1.61-.14,2.43-.72,2.78-2.29s.48-3.11.74-4.93M534.88,553.46c3,.06,3.87-1.12,3.17-3.11a11.37,11.37,0,0,0-1-2.07c-1-1.67-2-3.29-3-5-.8-1.41-1.47-2.89-2.24-4.32-.69-1.25-1.86-1.44-2.57-.43-1.65,2.38-3.27,4.78-4.93,7.15a1.36,1.36,0,0,0,.31,2.18c2,1.38,4,2.85,6.2,4a24.54,24.54,0,0,0,4.06,1.53" transform="translate(-260.85 -124.41)"/><path class="cls-3" d="M569.06,457.81c-1.7-2-3.58-3.91-5.07-6.08a12.9,12.9,0,0,0-5.29-4.56,58,58,0,0,1-5.44-3.27,9,9,0,0,1-1-.87,20.66,20.66,0,0,0,2.42.42,14.55,14.55,0,0,0,4-.08,3.86,3.86,0,0,0,1.92-1.78c.91-1.45.86-3.16.93-4.82a53,53,0,0,1,2.56-13.85c0,.32,0,.63,0,.94-.07,5.29-.29,10.59-.16,15.88a38.53,38.53,0,0,0,1.16,9c.63,2.34,2.11,4.44,3.22,6.65.35.71.7,1.43,1.06,2.14l-.34.25" transform="translate(-260.85 -124.41)"/><path class="cls-3" d="M523.12,379.21a13.27,13.27,0,0,1,6.57-1.34A5.15,5.15,0,0,0,535.2,375a19.26,19.26,0,0,1,9.65-8.19,10.26,10.26,0,0,1,2.34-.55c-5.85,3.95-11,8.34-11.15,16.27a26.68,26.68,0,0,0-12.92-3.32" transform="translate(-260.85 -124.41)"/><path class="cls-3" d="M591.24,417a30.72,30.72,0,0,1,2.64-3.14,24.59,24.59,0,0,1,3.71-2.78,8.87,8.87,0,0,0,4.54-8.08c0-3.34.12-6.73-1.35-9.88a24,24,0,0,0-1.77-2.95c-.71-1.09-1.48-2.15-2.23-3.22l.2-.21c1.5,1.34,3.08,2.6,4.47,4a12.46,12.46,0,0,1,3.81,9.27c-.06,1.81-.14,3.63-.37,5.42a6.87,6.87,0,0,0,3.18,7.16c1.15.76,2.16,1.73,3.44,2.76-2.82-.57-5.41-1-8-1.64-4.37-1.07-8.07.22-11.41,3-.15.12-.31.23-.47.34,0,0-.06,0-.44-.07" transform="translate(-260.85 -124.41)"/><path class="cls-3" d="M632,523.47c-1.25,2-2.44,4-3.77,5.88a35.44,35.44,0,0,1-4,5.2,29.84,29.84,0,0,1-5,3.48,27.56,27.56,0,0,1-3,1.41l-.2-.22a7.55,7.55,0,0,1,.86-1.08,14.55,14.55,0,0,1,1.84-1.39,14.84,14.84,0,0,0,4.45-4.94c.62-1,.39-1.63-.53-2.07-1.42-.68-2.89-1.28-4.34-1.9l-3-1.29c0-.09,0-.19.08-.29,1.8.3,3.63.47,5.39.91,3.47.88,6.39-.12,9.05-2.28l1.94-1.6.24.18" transform="translate(-260.85 -124.41)"/></g></svg>